<svg width="33" height="25" viewBox="0 0 33 25" fill="none" xmlns="http://www.w3.org/2000/svg">
<path d="M6 5.11111H8.45649C9.30294 5.11111 10.0577 5.64397 10.3411 6.44158L10.8732 7.93939M10.8732 7.93939L13.6717 15.8167C14.0207 16.7989 15.0653 17.3484 16.0723 17.0795L25.516 14.5579C26.3912 14.3242 27 13.5314 27 12.6256V9.93939C27 8.83482 26.1046 7.93939 25 7.93939H10.8732Z" stroke="#16191E" stroke-width="1.6"/>
<path d="M10.0898 19.8889C10.0898 21.0671 11.0449 22.0222 12.2231 22.0222C13.4013 22.0222 14.3564 21.0671 14.3564 19.8889C14.3564 18.7107 13.4013 17.7556 12.2231 17.7556C11.0449 17.7556 10.0898 18.7107 10.0898 19.8889ZM11.4453 20.2889H12.2231V19.4889H11.4453V20.2889Z" fill="#16191E"/>
<path d="M20.1991 19.8889C20.1991 21.0671 21.1543 22.0222 22.3325 22.0222C23.5107 22.0222 24.4658 21.0671 24.4658 19.8889C24.4658 18.7107 23.5107 17.7556 22.3325 17.7556C21.1543 17.7556 20.1991 18.7107 20.1991 19.8889ZM21.5547 20.2889H22.3325V19.4889H21.5547V20.2889Z" fill="#16191E"/>
</svg>
