<svg width="52" height="52" viewBox="0 0 52 52" fill="none" xmlns="http://www.w3.org/2000/svg">
<path d="M27.875 11.1875H45.375M27.875 19.9375H38.8125M27.875 33.0625H45.375M27.875 41.8125H38.8125M6 11.1875C6 10.6073 6.23047 10.0509 6.6407 9.6407C7.05094 9.23047 7.60734 9 8.1875 9H16.9375C17.5177 9 18.0741 9.23047 18.4843 9.6407C18.8945 10.0509 19.125 10.6073 19.125 11.1875V19.9375C19.125 20.5177 18.8945 21.0741 18.4843 21.4843C18.0741 21.8945 17.5177 22.125 16.9375 22.125H8.1875C7.60734 22.125 7.05094 21.8945 6.6407 21.4843C6.23047 21.0741 6 20.5177 6 19.9375V11.1875ZM6 33.0625C6 32.4823 6.23047 31.9259 6.6407 31.5157C7.05094 31.1055 7.60734 30.875 8.1875 30.875H16.9375C17.5177 30.875 18.0741 31.1055 18.4843 31.5157C18.8945 31.9259 19.125 32.4823 19.125 33.0625V41.8125C19.125 42.3927 18.8945 42.9491 18.4843 43.3593C18.0741 43.7695 17.5177 44 16.9375 44H8.1875C7.60734 44 7.05094 43.7695 6.6407 43.3593C6.23047 42.9491 6 42.3927 6 41.8125V33.0625Z" stroke="#117FE3" stroke-width="2.4" stroke-linecap="round" stroke-linejoin="round"/>
</svg>
