<svg width="38" height="38" viewBox="0 0 38 38" fill="none" xmlns="http://www.w3.org/2000/svg">
<path d="M12.8669 24.5333L24.5335 12.8666M14.8113 13.8388C14.8113 14.3758 14.376 14.8111 13.8391 14.8111C13.3021 14.8111 12.8669 14.3758 12.8669 13.8388C12.8669 13.3019 13.3021 12.8666 13.8391 12.8666C14.376 12.8666 14.8113 13.3019 14.8113 13.8388ZM24.5335 23.5611C24.5335 24.098 24.0982 24.5333 23.5613 24.5333C23.0244 24.5333 22.5891 24.098 22.5891 23.5611C22.5891 23.0241 23.0244 22.5888 23.5613 22.5888C24.0982 22.5888 24.5335 23.0241 24.5335 23.5611ZM1.2002 18.7C1.2002 20.9981 1.65285 23.2737 2.5323 25.3969C3.41176 27.5201 4.7008 29.4493 6.32583 31.0743C7.95085 32.6993 9.88004 33.9884 12.0032 34.8678C14.1264 35.7473 16.4021 36.2 18.7002 36.2C20.9983 36.2 23.274 35.7473 25.3972 34.8678C27.5204 33.9884 29.4495 32.6993 31.0746 31.0743C32.6996 29.4493 33.9886 27.5201 34.8681 25.3969C35.7475 23.2737 36.2002 20.9981 36.2002 18.7C36.2002 16.4018 35.7475 14.1262 34.8681 12.003C33.9886 9.87979 32.6996 7.95061 31.0746 6.32558C29.4495 4.70056 27.5204 3.41152 25.3972 2.53206C23.274 1.6526 20.9983 1.19995 18.7002 1.19995C16.4021 1.19995 14.1264 1.6526 12.0032 2.53206C9.88004 3.41152 7.95085 4.70056 6.32583 6.32558C4.7008 7.95061 3.41176 9.87979 2.5323 12.003C1.65285 14.1262 1.2002 16.4018 1.2002 18.7Z" stroke="#117FE3" stroke-width="2.4" stroke-linecap="round" stroke-linejoin="round"/>
</svg>
