<svg width="33" height="25" viewBox="0 0 33 25" fill="none" xmlns="http://www.w3.org/2000/svg">
<rect x="7.8" y="4.3" width="17.4" height="17.4" rx="5.2" stroke="#16191E" stroke-width="1.6"/>
<path d="M16.5 7.46643C17.4075 7.46655 18.2782 7.82768 18.9199 8.46936C19.5614 9.11111 19.9219 9.98186 19.9219 10.8893C19.9218 11.7968 19.5616 12.6675 18.9199 13.3092C18.2782 13.9509 17.4075 14.311 16.5 14.3112C15.5926 14.3112 14.7218 13.9507 14.0801 13.3092C13.4384 12.6675 13.0773 11.7968 13.0771 10.8893C13.0771 9.98166 13.4383 9.11116 14.0801 8.46936C14.7219 7.82757 15.5924 7.46643 16.5 7.46643Z" stroke="#16191E" stroke-width="1.6"/>
<path d="M22.8346 20.3889C22.8346 17.1502 19.9991 15.1111 16.5013 15.1111C13.0035 15.1111 10.168 17.1502 10.168 20.3889" stroke="#16191E" stroke-width="1.6"/>
</svg>
